<svg width="121" height="160" viewBox="0 0 121 160" fill="none" xmlns="http://www.w3.org/2000/svg">
<path d="M22.5 45L24 45L24 45L22.5 45ZM31 133.5L31 132H31L31 133.5ZM83.8788 156.879C83.293 157.465 83.293 158.414 83.8788 159C84.4646 159.586 85.4143 159.586 86.0001 159L83.8788 156.879ZM111 36.5L111 35H111V36.5ZM2 104C1.17157 104 0.5 104.672 0.5 105.5C0.5 106.328 1.17157 107 2 107V104ZM2 91C1.17157 91 0.5 91.6716 0.5 92.5C0.5 93.3284 1.17157 94 2 94V91ZM119.5 125L118 125V125L119.5 125ZM21 45V94H24V45H21ZM31 38H74V35H31V38ZM31 135H112V132H31V135ZM74 38V16H71V38H74ZM96 149V135H93V149H96ZM86.0001 159L96.0001 149L93.8788 146.879L83.8788 156.879L86.0001 159ZM82 8V38H85V8H82ZM85 38H111V35H85V38ZM101 27V38H104V27H101ZM31 18H74V15H31V18ZM47 8L85 8L85 5L47 5L47 8ZM21 104V125H24V104H21ZM2 107H22V104H2V107ZM2 94H24V91H2V94ZM118 45V125H121V45H118ZM30.5 16.5C30.5 18.1569 29.1569 19.5 27.5 19.5V22.5C30.8137 22.5 33.5 19.8137 33.5 16.5H30.5ZM27.5 19.5C25.8431 19.5 24.5 18.1569 24.5 16.5H21.5C21.5 19.8137 24.1863 22.5 27.5 22.5V19.5ZM24.5 16.5C24.5 14.8431 25.8431 13.5 27.5 13.5V10.5C24.1863 10.5 21.5 13.1863 21.5 16.5H24.5ZM27.5 13.5C29.1569 13.5 30.5 14.8431 30.5 16.5H33.5C33.5 13.1863 30.8137 10.5 27.5 10.5V13.5ZM46.5 6.5C46.5 8.15685 45.1569 9.5 43.5 9.5V12.5C46.8137 12.5 49.5 9.81371 49.5 6.5H46.5ZM43.5 9.5C41.8431 9.5 40.5 8.15685 40.5 6.5H37.5C37.5 9.81371 40.1863 12.5 43.5 12.5V9.5ZM40.5 6.5C40.5 4.84315 41.8431 3.5 43.5 3.5V0.5C40.1863 0.5 37.5 3.18629 37.5 6.5H40.5ZM43.5 3.5C45.1569 3.5 46.5 4.84315 46.5 6.5H49.5C49.5 3.18629 46.8137 0.5 43.5 0.5V3.5ZM105.5 23.5C105.5 25.1569 104.157 26.5 102.5 26.5V29.5C105.814 29.5 108.5 26.8137 108.5 23.5H105.5ZM102.5 26.5C100.843 26.5 99.5 25.1569 99.5 23.5H96.5C96.5 26.8137 99.1863 29.5 102.5 29.5V26.5ZM99.5 23.5C99.5 21.8431 100.843 20.5 102.5 20.5V17.5C99.1863 17.5 96.5 20.1863 96.5 23.5H99.5ZM102.5 20.5C104.157 20.5 105.5 21.8431 105.5 23.5H108.5C108.5 20.1863 105.814 17.5 102.5 17.5V20.5ZM21 124.5C21 130.828 25.6716 135 31 135L31 132C27.3284 132 24 129.172 24 124.5H21ZM111.5 135C116.328 135 121 130.828 121 125L118 125C118 129.172 114.672 132 111.5 132L111.5 135ZM31.5 35C24.5608 35 21 40.2869 21 45L24 45C24 41.7131 26.4392 38 31.5 38L31.5 35ZM121.006 44.9946C121.006 38.4963 115.647 35 111 35L111 38C114.352 38 118.006 40.4932 118.006 44.9946L121.006 44.9946Z" fill="white"/>
<g filter="url(#filter0_d_125_277)">
<path d="M43 48.5H98C102.694 48.5 106.5 52.3056 106.5 57V112C106.5 116.694 102.694 120.5 98 120.5H43C38.3056 120.5 34.5 116.694 34.5 112V57C34.5 52.3056 38.3056 48.5 43 48.5Z" stroke="white" stroke-width="3" shape-rendering="crispEdges"/>
</g>
<line x1="36" y1="52.5" x2="105" y2="52.5" stroke="white" stroke-opacity="0.5"/>
<line x1="38.5" y1="51" x2="38.5" y2="118" stroke="white" stroke-opacity="0.5"/>
<line x1="41.5" y1="50" x2="41.5" y2="118" stroke="white" stroke-opacity="0.5"/>
<line x1="44.5" y1="50" x2="44.5" y2="118" stroke="white" stroke-opacity="0.5"/>
<path d="M47.5 50L47.5 118" stroke="white" stroke-opacity="0.5"/>
<path d="M50.5 50V62" stroke="white" stroke-opacity="0.5"/>
<path d="M50.5 50V62" stroke="white" stroke-opacity="0.5"/>
<path d="M50.5 106V118" stroke="white" stroke-opacity="0.5"/>
<path d="M53.5 50V62" stroke="white" stroke-opacity="0.5"/>
<path d="M53.5 50V62" stroke="white" stroke-opacity="0.5"/>
<path d="M53.5 106V118" stroke="white" stroke-opacity="0.5"/>
<path d="M56.5 50V62" stroke="white" stroke-opacity="0.5"/>
<path d="M56.5 50V62" stroke="white" stroke-opacity="0.5"/>
<path d="M56.5 106V118" stroke="white" stroke-opacity="0.5"/>
<path d="M59.5 50V62" stroke="white" stroke-opacity="0.5"/>
<path d="M59.5 50V62" stroke="white" stroke-opacity="0.5"/>
<path d="M59.5 106V118" stroke="white" stroke-opacity="0.5"/>
<path d="M62.5 50V62" stroke="white" stroke-opacity="0.5"/>
<path d="M62.5 50V62" stroke="white" stroke-opacity="0.5"/>
<path d="M62.5 106V118" stroke="white" stroke-opacity="0.5"/>
<path d="M65.5 50V62" stroke="white" stroke-opacity="0.5"/>
<path d="M65.5 50V62" stroke="white" stroke-opacity="0.5"/>
<path d="M65.5 106V118" stroke="white" stroke-opacity="0.5"/>
<path d="M68.5 50V62" stroke="white" stroke-opacity="0.5"/>
<path d="M68.5 50V62" stroke="white" stroke-opacity="0.5"/>
<path d="M68.5 106V118" stroke="white" stroke-opacity="0.5"/>
<path d="M71.5 50V62" stroke="white" stroke-opacity="0.5"/>
<path d="M71.5 50V62" stroke="white" stroke-opacity="0.5"/>
<path d="M71.5 106V118" stroke="white" stroke-opacity="0.5"/>
<path d="M74.5 50V62" stroke="white" stroke-opacity="0.5"/>
<path d="M74.5 50V62" stroke="white" stroke-opacity="0.5"/>
<path d="M74.5 106V118" stroke="white" stroke-opacity="0.5"/>
<path d="M77.5 50V62" stroke="white" stroke-opacity="0.5"/>
<path d="M77.5 50V62" stroke="white" stroke-opacity="0.5"/>
<path d="M77.5 106V118" stroke="white" stroke-opacity="0.5"/>
<path d="M80.5 50V62" stroke="white" stroke-opacity="0.5"/>
<path d="M80.5 50V62" stroke="white" stroke-opacity="0.5"/>
<path d="M80.5 106V118" stroke="white" stroke-opacity="0.5"/>
<path d="M83.5 50V62" stroke="white" stroke-opacity="0.5"/>
<path d="M83.5 50V62" stroke="white" stroke-opacity="0.5"/>
<path d="M83.5 106V118" stroke="white" stroke-opacity="0.5"/>
<path d="M86.5 50V62" stroke="white" stroke-opacity="0.5"/>
<path d="M86.5 50V62" stroke="white" stroke-opacity="0.5"/>
<path d="M86.5 106V118" stroke="white" stroke-opacity="0.5"/>
<path d="M89.5 50V62" stroke="white" stroke-opacity="0.5"/>
<path d="M89.5 50V62" stroke="white" stroke-opacity="0.5"/>
<path d="M89.5 106V118" stroke="white" stroke-opacity="0.5"/>
<path d="M92.5 50V65" stroke="white" stroke-opacity="0.5"/>
<path d="M92.5 103V118" stroke="white" stroke-opacity="0.5"/>
<path d="M95.5 50V118" stroke="white" stroke-opacity="0.5"/>
<path d="M98.5 50V118" stroke="white" stroke-opacity="0.5"/>
<path d="M101.5 50V118" stroke="white" stroke-opacity="0.5"/>
<path d="M104.5 50V118" stroke="white" stroke-opacity="0.5"/>
<line x1="36" y1="55.5" x2="105" y2="55.5" stroke="white" stroke-opacity="0.5"/>
<line x1="36" y1="58.5" x2="105" y2="58.5" stroke="white" stroke-opacity="0.5"/>
<line x1="36" y1="61.5" x2="105" y2="61.5" stroke="white" stroke-opacity="0.5"/>
<line x1="36" y1="64.5" x2="48" y2="64.5" stroke="white" stroke-opacity="0.5"/>
<line x1="93" y1="64.5" x2="108" y2="64.5" stroke="white" stroke-opacity="0.5"/>
<line x1="36" y1="67.5" x2="48" y2="67.5" stroke="white" stroke-opacity="0.5"/>
<line x1="93" y1="67.5" x2="108" y2="67.5" stroke="white" stroke-opacity="0.5"/>
<line x1="36" y1="70.5" x2="48" y2="70.5" stroke="white" stroke-opacity="0.5"/>
<line x1="93" y1="70.5" x2="108" y2="70.5" stroke="white" stroke-opacity="0.5"/>
<line x1="36" y1="73.5" x2="48" y2="73.5" stroke="white" stroke-opacity="0.5"/>
<line x1="93" y1="73.5" x2="108" y2="73.5" stroke="white" stroke-opacity="0.5"/>
<line x1="36" y1="76.5" x2="48" y2="76.5" stroke="white" stroke-opacity="0.5"/>
<line x1="93" y1="76.5" x2="108" y2="76.5" stroke="white" stroke-opacity="0.5"/>
<line x1="36" y1="79.5" x2="48" y2="79.5" stroke="white" stroke-opacity="0.5"/>
<line x1="93" y1="79.5" x2="108" y2="79.5" stroke="white" stroke-opacity="0.5"/>
<line x1="36" y1="82.5" x2="48" y2="82.5" stroke="white" stroke-opacity="0.5"/>
<line x1="93" y1="82.5" x2="108" y2="82.5" stroke="white" stroke-opacity="0.5"/>
<line x1="36" y1="85.5" x2="48" y2="85.5" stroke="white" stroke-opacity="0.5"/>
<line x1="93" y1="85.5" x2="108" y2="85.5" stroke="white" stroke-opacity="0.5"/>
<line x1="36" y1="88.5" x2="48" y2="88.5" stroke="white" stroke-opacity="0.5"/>
<line x1="93" y1="88.5" x2="108" y2="88.5" stroke="white" stroke-opacity="0.5"/>
<line x1="36" y1="91.5" x2="48" y2="91.5" stroke="white" stroke-opacity="0.5"/>
<line x1="93" y1="91.5" x2="108" y2="91.5" stroke="white" stroke-opacity="0.5"/>
<line x1="36" y1="94.5" x2="48" y2="94.5" stroke="white" stroke-opacity="0.5"/>
<line x1="93" y1="94.5" x2="108" y2="94.5" stroke="white" stroke-opacity="0.5"/>
<line x1="36" y1="97.5" x2="48" y2="97.5" stroke="white" stroke-opacity="0.5"/>
<line x1="93" y1="97.5" x2="108" y2="97.5" stroke="white" stroke-opacity="0.5"/>
<line x1="36" y1="100.5" x2="48" y2="100.5" stroke="white" stroke-opacity="0.5"/>
<line x1="93" y1="100.5" x2="108" y2="100.5" stroke="white" stroke-opacity="0.5"/>
<line x1="36" y1="103.5" x2="48" y2="103.5" stroke="white" stroke-opacity="0.5"/>
<line x1="93" y1="103.5" x2="108" y2="103.5" stroke="white" stroke-opacity="0.5"/>
<line x1="36" y1="106.5" x2="105" y2="106.5" stroke="white" stroke-opacity="0.5"/>
<line x1="36" y1="109.5" x2="105" y2="109.5" stroke="white" stroke-opacity="0.5"/>
<line x1="36" y1="112.5" x2="105" y2="112.5" stroke="white" stroke-opacity="0.5"/>
<line x1="36" y1="115.5" x2="105" y2="115.5" stroke="white" stroke-opacity="0.5"/>
<line x1="36" y1="118.5" x2="105" y2="118.5" stroke="white" stroke-opacity="0.5"/>
<g filter="url(#filter1_d_125_277)">
<path d="M56 61.5H86C90.6944 61.5 94.5 65.3056 94.5 70V100C94.5 104.694 90.6944 108.5 86 108.5H56C51.3056 108.5 47.5 104.694 47.5 100V70C47.5 65.3056 51.3056 61.5 56 61.5Z" stroke="white" stroke-width="3" shape-rendering="crispEdges"/>
</g>
<defs>
<filter id="filter0_d_125_277" x="29" y="47" width="83" height="83" filterUnits="userSpaceOnUse" color-interpolation-filters="sRGB">
<feFlood flood-opacity="0" result="BackgroundImageFix"/>
<feColorMatrix in="SourceAlpha" type="matrix" values="0 0 0 0 0 0 0 0 0 0 0 0 0 0 0 0 0 0 127 0" result="hardAlpha"/>
<feOffset dy="4"/>
<feGaussianBlur stdDeviation="2"/>
<feComposite in2="hardAlpha" operator="out"/>
<feColorMatrix type="matrix" values="0 0 0 0 0 0 0 0 0 0 0 0 0 0 0 0 0 0 0.25 0"/>
<feBlend mode="normal" in2="BackgroundImageFix" result="effect1_dropShadow_125_277"/>
<feBlend mode="normal" in="SourceGraphic" in2="effect1_dropShadow_125_277" result="shape"/>
</filter>
<filter id="filter1_d_125_277" x="42" y="60" width="58" height="58" filterUnits="userSpaceOnUse" color-interpolation-filters="sRGB">
<feFlood flood-opacity="0" result="BackgroundImageFix"/>
<feColorMatrix in="SourceAlpha" type="matrix" values="0 0 0 0 0 0 0 0 0 0 0 0 0 0 0 0 0 0 127 0" result="hardAlpha"/>
<feOffset dy="4"/>
<feGaussianBlur stdDeviation="2"/>
<feComposite in2="hardAlpha" operator="out"/>
<feColorMatrix type="matrix" values="0 0 0 0 0 0 0 0 0 0 0 0 0 0 0 0 0 0 0.25 0"/>
<feBlend mode="normal" in2="BackgroundImageFix" result="effect1_dropShadow_125_277"/>
<feBlend mode="normal" in="SourceGraphic" in2="effect1_dropShadow_125_277" result="shape"/>
</filter>
</defs>
</svg>
